<svg width="12" height="22" viewBox="0 0 12 22" fill="none" xmlns="http://www.w3.org/2000/svg">
<path d="M9.60938 20.7826C9.86719 21.0404 10.1953 21.1811 10.582 21.1811C11.3555 21.1811 11.9766 20.5717 11.9766 19.7982C11.9766 19.4115 11.8125 19.06 11.543 18.7904L3.33984 10.7748L11.543 2.78262C11.8125 2.51309 11.9766 2.14981 11.9766 1.77481C11.9766 1.00137 11.3555 0.391998 10.582 0.391998C10.1953 0.391998 9.86719 0.532623 9.60938 0.790436L0.492188 9.69669C0.164062 10.0014 0.0117188 10.3764 0 10.7865C0 11.1967 0.164062 11.5482 0.492188 11.8647L9.60938 20.7826Z" fill="#007AFF"/>
</svg>
